# xmcd
#
# Track frame offsets: 
#        150
#        18718
#        36192
#        51300
#        70545
#        84402
#        101886
#        118996
#        135744
#        155173
#        171267
#        185019
#
# Disc length: 2727 seconds
#
# Revision: 2
# Processed by: cddbd v1.5.1PL0 Copyright (c) Steve Scherf et al.
# Submitted via: ExactAudioCopy v0.95a5
#
DISCID=af0aa50c
DTITLE=鎮苤棡 - 花樣的年華
DYEAR=2003
DGENRE=Pop
TTITLE0=香格里拉
TTITLE1=永遠的微笑
TTITLE2=廚房歌
TTITLE3=秋水伊人
TTITLE4=春光無限好
TTITLE5=哈恰恰
TTITLE6=蘇州河邊
TTITLE7=薔薇處處開
TTITLE8=別離三年又相逢
TTITLE9=春天的降臨
TTITLE10=花樣的年華
TTITLE11=夢中人
EXTD=
EXTT0=
EXTT1=
EXTT2=
EXTT3=
EXTT4=
EXTT5=
EXTT6=
EXTT7=
EXTT8=
EXTT9=
EXTT10=
EXTT11=
PLAYORDER=
